<svg width="960" height="360" viewBox="0 0 960 360" fill="none" xmlns="http://www.w3.org/2000/svg">
  <rect width="960" height="360" rx="32" fill="#0b0d12"/>
  <text x="48" y="58" fill="#f6f7fb" font-family="-apple-system,BlinkMacSystemFont,Segoe UI,sans-serif" font-size="28" font-weight="700">SuperAgentIsland 岛屿概览</text>
  <text x="48" y="93" fill="#8c93a3" font-family="-apple-system,BlinkMacSystemFont,Segoe UI,sans-serif" font-size="15">缩小时只显示两个关键百分比，悬停后展示 logo 和文字提示，点击后展开完整面板。</text>

  <g transform="translate(88 140)">
    <text x="0" y="-22" fill="#cfd5e2" font-family="-apple-system,BlinkMacSystemFont,Segoe UI,sans-serif" font-size="15" font-weight="600">缩小状态</text>
    <rect x="0" y="0" width="270" height="54" rx="18" fill="#050608" stroke="#252a34"/>
    <circle cx="46" cy="27" r="16" stroke="#27313e" stroke-width="4"/>
    <path d="M46 11a16 16 0 1 1-11.3 27.3" stroke="#7bd88f" stroke-width="4" stroke-linecap="round"/>
    <text x="37" y="31" fill="#9ba3b2" font-family="-apple-system,BlinkMacSystemFont,Segoe UI,sans-serif" font-size="10" font-weight="700">72</text>
    <rect x="83" y="0" width="104" height="54" rx="0" fill="#050608"/>
    <circle cx="224" cy="27" r="16" stroke="#27313e" stroke-width="4"/>
    <path d="M224 11a16 16 0 1 1-15.2 21" stroke="#55a7ff" stroke-width="4" stroke-linecap="round"/>
    <text x="215" y="31" fill="#9ba3b2" font-family="-apple-system,BlinkMacSystemFont,Segoe UI,sans-serif" font-size="10" font-weight="700">64</text>
  </g>

  <g transform="translate(452 140)">
    <text x="0" y="-22" fill="#cfd5e2" font-family="-apple-system,BlinkMacSystemFont,Segoe UI,sans-serif" font-size="15" font-weight="600">悬停状态</text>
    <rect x="0" y="0" width="420" height="54" rx="18" fill="#050608" stroke="#252a34"/>
    <text x="34" y="32" fill="#aab2c1" font-family="-apple-system,BlinkMacSystemFont,Segoe UI,sans-serif" font-size="13" font-weight="700">额度</text>
    <circle cx="88" cy="27" r="14" stroke="#27313e" stroke-width="4"/>
    <path d="M88 13a14 14 0 1 1-9.8 23.9" stroke="#7bd88f" stroke-width="4" stroke-linecap="round"/>
    <text x="80" y="31" fill="#aab2c1" font-family="-apple-system,BlinkMacSystemFont,Segoe UI,sans-serif" font-size="9" font-weight="700">72</text>
    <rect x="132" y="14" width="26" height="26" rx="8" fill="#11161f" stroke="#313846"/>
    <path d="M139 27h12M145 21v12" stroke="#7bd88f" stroke-width="2" stroke-linecap="round"/>
    <rect x="262" y="14" width="26" height="26" rx="8" fill="#11161f" stroke="#313846"/>
    <path d="M269 27h12M275 21v12" stroke="#55a7ff" stroke-width="2" stroke-linecap="round"/>
    <circle cx="326" cy="27" r="14" stroke="#27313e" stroke-width="4"/>
    <path d="M326 13a14 14 0 1 1-13.4 18.2" stroke="#55a7ff" stroke-width="4" stroke-linecap="round"/>
    <text x="318" y="31" fill="#aab2c1" font-family="-apple-system,BlinkMacSystemFont,Segoe UI,sans-serif" font-size="9" font-weight="700">64</text>
    <text x="352" y="32" fill="#aab2c1" font-family="-apple-system,BlinkMacSystemFont,Segoe UI,sans-serif" font-size="13" font-weight="700">积分</text>
  </g>

  <g transform="translate(88 248)">
    <rect x="0" y="0" width="784" height="54" rx="14" fill="#11161f" stroke="#252a34"/>
    <text x="24" y="34" fill="#f6f7fb" font-family="-apple-system,BlinkMacSystemFont,Segoe UI,sans-serif" font-size="16" font-weight="700">点击展开</text>
    <text x="126" y="34" fill="#8c93a3" font-family="-apple-system,BlinkMacSystemFont,Segoe UI,sans-serif" font-size="14">用量概览 / 模型排行 / GAC 积分</text>
    <text x="585" y="34" fill="#8c93a3" font-family="-apple-system,BlinkMacSystemFont,Segoe UI,sans-serif" font-size="14">Command + 点击切换时间范围</text>
  </g>
</svg>
